<svg width="117" height="25" viewBox="0 0 117 25" fill="none" xmlns="http://www.w3.org/2000/svg">
<g clip-path="url(#clip0_551_5119)">
<path fill-rule="evenodd" clip-rule="evenodd" d="M51.3997 20.1976L51.4264 20.3044C51.0858 20.5179 50.5854 20.6296 49.9252 20.6393C49.2651 20.649 48.5451 20.605 47.7652 20.5073C46.4346 22.284 44.5796 23.191 42.2003 23.2282C40.1784 23.2936 38.533 22.6964 37.264 21.4365C35.8034 22.6497 34.4287 23.2142 33.1401 23.13C31.2071 23.0038 31.0819 20.3883 31.0819 19.466C31.0819 18.8511 31.2365 17.615 31.5459 15.7578C31.9643 13.834 31.687 12.9071 30.7139 12.9773C29.3339 12.8391 27.5692 16.8305 27.5692 17.9787C27.5276 19.4572 28.2432 20.4113 28.2097 21.4365C28.0922 22.6039 25.4831 23.5156 25.0049 23.5156C24.5267 23.5156 24.0808 23.2282 23.8546 21.8162C23.6284 20.4042 24.2167 13.4121 24.2167 12.9773C24.2167 12.5426 24.0248 11.8952 23.3022 11.8952C21.5772 12.3322 20.153 15.9903 20.0512 17.4818C19.9494 18.9733 20.697 21.0152 20.6565 21.5303C20.6159 22.0453 18.5937 23.4958 17.4839 23.5156C16.7441 23.5289 16.35 22.9624 16.3017 21.8162C14.8238 22.7575 13.6065 23.1954 12.6497 23.13C11.7929 23.1396 11.1004 22.2257 10.5723 20.3883C9.32297 22.4701 7.50269 23.4167 5.11148 23.2282C-0.315752 22.7314 0.714392 17.289 1.61246 14.346C3.8847 9.65912 7.14341 7.9297 11.3886 9.15773C11.7645 8.5506 12.1593 8.24722 12.5729 8.24761C14.0775 8.47288 15.2979 10.2345 15.2979 10.8922C15.2979 11.3307 14.8664 12.1447 14.0035 13.3341C13.8379 15.5113 13.8379 17.4309 14.0035 19.0927C14.0999 20.0385 14.8388 19.8211 16.2202 18.4403C16.1986 17.5859 16.2671 16.2726 16.4257 14.5005C16.6636 11.8424 18.624 8.02235 19.6819 8.02235C20.3871 8.02235 21.0741 8.83459 21.7427 10.4591C22.8212 9.17678 23.9086 8.57777 25.0049 8.66206C27.1031 8.86311 28.2149 9.97629 28.3401 12.0016C29.6579 10.3134 31.1093 9.55151 32.6943 9.71592C35.5129 10.0197 35.7587 11.3412 35.8313 13.2166C35.9039 15.0919 34.58 18.5325 34.73 19.466C34.8061 19.8346 35.2376 19.7102 36.0246 19.0927C35.8957 18.4998 35.8313 17.8551 35.8313 17.1587C35.9222 12.0007 39.4605 8.99106 43.0981 8.66206C46.7357 8.33305 48.1462 10.084 48.1462 10.4591C48.1462 10.7091 47.7669 10.8535 47.0082 10.8922C44.738 10.6557 42.9868 11.2373 41.7545 12.6373C39.6568 14.9446 39.6667 18.302 41.3145 19.466C42.4131 20.242 43.7637 20.242 45.3663 19.466C44.0212 18.4148 43.3452 17.0846 43.3383 15.4753C43.3383 13.4689 44.6266 11.6143 47.0082 11.4938C49.3899 11.3733 49.9078 13.0605 50.0378 14.5005C50.1246 15.4606 49.8913 16.5714 49.3382 17.833L49.9252 17.8065C50.2204 17.7534 50.4929 17.6753 50.7429 17.5721L50.8782 18.1131C50.6352 16.2683 50.828 14.2146 51.0924 12.3032C52.7021 5.47424 56.1536 1.6963 61.447 0.969358C63.5978 0.746824 64.6614 1.90114 64.6378 4.43229C64.6378 6.09872 63.5901 7.56106 62.6565 7.56106C61.7229 7.56106 61.4793 6.09369 59.4692 6.14071C56.4291 6.60878 55.5731 11.9595 55.2698 13.9188C54.9665 15.8781 55.702 19.217 58.7652 19.6152C61.8283 20.0135 64.9135 14.8334 65.9234 13.7501C66.9334 12.6668 68.2299 5.56387 71.1338 5.74094C72.2282 6.44691 70.2481 13.1118 69.857 14.8334C69.466 16.5549 69.6006 19.7701 69.6006 21.4698C69.6006 23.1696 67.4513 23.9537 66.2209 23.9537C65.2809 23.9486 64.845 22.9389 64.9135 20.9246C62.5126 23.1757 59.9749 24.189 57.3004 23.9645C53.9402 23.7192 52.2129 22.2327 51.3997 20.1976ZM113.787 23.2271C112.186 23.2271 110.888 21.8933 110.888 20.248C110.888 18.6027 112.186 17.2688 113.787 17.2688C115.388 17.2688 116.686 18.6027 116.686 20.248C116.686 21.8933 115.388 23.2271 113.787 23.2271ZM64.6909 5.69872C65.4835 3.04461 68.2453 1.46815 72.9763 0.969358C76.1898 1.0853 78.4185 1.87353 79.6625 3.33404C80.751 1.76624 82.2088 1.02952 84.0358 1.12386C86.2341 0.980237 87.3706 2.28574 87.4452 5.04036C88.9427 2.31311 90.8323 0.956103 93.1141 0.969358C96.0474 1.16507 97.401 3.15829 97.1748 6.94902C98.6477 5.04024 100.156 4.15696 101.701 4.29919C105.373 4.44632 105.909 7.57144 104.629 13.9846C104.433 14.9651 104.09 16.5746 103.599 18.8131C103.58 19.9384 103.923 20.3832 104.629 20.1475C105.687 19.7939 108.295 16.511 108.668 16.511C109.041 16.511 109.54 17.1856 109.366 17.9673C109.192 18.7489 107.336 23.4846 102.397 23.7466C97.1079 23.0743 100.691 16.6773 101.336 12.9241C101.701 11.8544 102.284 8.39381 100.999 8.39381C99.4353 8.31989 97.1028 11.7788 96.2045 14.657C94.498 19.7608 95.5153 20.6279 95.3447 21.4601C95.0212 22.984 94.1195 23.8345 92.6396 24.0118C90.4198 24.2778 91.0533 21.3822 91.2137 20.1475C91.6849 16.8743 95.8111 6.08656 92.6396 5.04036C87.9367 4.66586 85.9697 16.9104 85.9697 17.4389C85.7687 18.3982 88.4895 22.8634 83.5827 24.0118C82.2567 24.0006 81.6281 23.3176 81.6968 21.9627C79.8016 23.255 78.3353 23.8496 77.2979 23.7466C74.2177 23.5095 74.3718 19.5889 74.0157 17.4389C73.6596 15.2888 73.5209 14.2159 73.5209 14.2159C72.1984 13.9762 71.5584 13.4614 71.6007 12.6716C71.6965 11.215 72.7965 10.8339 74.9007 11.5283C76.3361 10.0905 76.9512 8.64972 76.7461 7.20597C76.2612 3.14082 72.1725 4.01837 70.7272 4.01837C69.2819 4.01837 65.8027 5.98024 65.8027 5.98024C65.4689 6.10554 65.2016 6.12204 65.0006 6.02972C64.7996 5.9374 64.6964 5.82707 64.6909 5.69872ZM80.9273 5.14738C81.2226 6.18683 81.2226 7.40925 80.9273 8.81463C80.7384 10.7145 79.2758 12.3911 76.5395 13.8443C76.9226 14.7877 77.1732 15.4772 77.2913 15.913C77.9464 18.3305 77.9444 19.6646 78.9914 20.1948C79.4722 20.4165 80.44 19.7242 81.8946 18.1179C82.5332 13.9742 82.9793 11.3065 83.233 10.1149C83.6136 8.32738 84.3351 4.34562 82.5454 4.22433C82.013 4.22433 81.4736 4.53201 80.9273 5.14738ZM10.9577 10.8244C10.3766 10.8041 9.44316 11.1907 8.15741 11.9842C6.79802 12.739 5.51413 14.6264 5.28167 15.945C5.04922 17.2637 4.59865 19.9051 6.81822 20.0725C8.25339 20.2005 9.46301 19.0553 10.4471 16.6371C10.5598 15.8911 10.5916 15.1136 10.5426 14.3045C10.5426 13.6362 10.6809 12.4762 10.9577 10.8244ZM47.4831 16.9808C47.8624 16.075 48.052 15.4306 48.052 15.0476C48.052 14.4731 47.8766 13.9188 47.4831 13.9188C47.0897 13.9188 46.669 14.3235 46.7538 15.2C46.8289 15.9787 47.072 16.5723 47.4831 16.9808Z" fill="#87D6F7"/>
<mask id="mask0_551_5119" style="mask-type:alpha" maskUnits="userSpaceOnUse" x="0" y="0" width="117" height="25">
<path fill-rule="evenodd" clip-rule="evenodd" d="M51.3997 20.1976L51.4264 20.3044C51.0858 20.5179 50.5854 20.6296 49.9252 20.6393C49.2651 20.649 48.5451 20.605 47.7652 20.5073C46.4346 22.284 44.5796 23.191 42.2003 23.2282C40.1784 23.2936 38.533 22.6964 37.2641 21.4365C35.8034 22.6497 34.4287 23.2142 33.1401 23.13C31.2071 23.0038 31.0819 20.3883 31.0819 19.466C31.0819 18.8511 31.2365 17.615 31.5459 15.7578C31.9643 13.834 31.687 12.9071 30.7139 12.9773C29.3339 12.8391 27.5692 16.8305 27.5692 17.9787C27.5276 19.4572 28.2432 20.4113 28.2097 21.4365C28.0922 22.6039 25.4831 23.5156 25.0049 23.5156C24.5267 23.5156 24.0808 23.2282 23.8546 21.8162C23.6284 20.4042 24.2167 13.4121 24.2167 12.9773C24.2167 12.5426 24.0248 11.8952 23.3022 11.8952C21.5772 12.3322 20.153 15.9903 20.0512 17.4818C19.9494 18.9733 20.697 21.0152 20.6565 21.5303C20.6159 22.0453 18.5937 23.4958 17.4839 23.5156C16.7441 23.5289 16.35 22.9624 16.3017 21.8162C14.8238 22.7575 13.6065 23.1954 12.6497 23.13C11.7929 23.1396 11.1004 22.2257 10.5723 20.3883C9.32297 22.4701 7.50269 23.4167 5.11148 23.2282C-0.315752 22.7314 0.714392 17.289 1.61246 14.346C3.8847 9.65912 7.14341 7.9297 11.3886 9.15773C11.7645 8.5506 12.1593 8.24722 12.5729 8.24761C14.0775 8.47288 15.2979 10.2345 15.2979 10.8922C15.2979 11.3307 14.8664 12.1447 14.0035 13.3341C13.8379 15.5113 13.8379 17.4309 14.0035 19.0927C14.0999 20.0385 14.8388 19.8211 16.2202 18.4403C16.1986 17.5859 16.2671 16.2726 16.4257 14.5005C16.6636 11.8424 18.624 8.02235 19.6819 8.02235C20.3871 8.02235 21.0741 8.83459 21.7427 10.4591C22.8212 9.17678 23.9086 8.57777 25.0049 8.66206C27.1031 8.86311 28.2149 9.97629 28.3401 12.0016C29.6579 10.3134 31.1093 9.55151 32.6943 9.71592C35.5129 10.0197 35.7587 11.3412 35.8313 13.2166C35.9039 15.0919 34.58 18.5325 34.73 19.466C34.8061 19.8346 35.2376 19.7102 36.0246 19.0927C35.8957 18.4998 35.8313 17.8551 35.8313 17.1587C35.9222 12.0007 39.4605 8.99106 43.0981 8.66206C46.7357 8.33305 48.1462 10.084 48.1462 10.4591C48.1462 10.7091 47.7669 10.8535 47.0082 10.8922C44.738 10.6557 42.9868 11.2373 41.7545 12.6373C39.6568 14.9446 39.6667 18.302 41.3145 19.466C42.4131 20.242 43.7637 20.242 45.3663 19.466C44.0212 18.4148 43.3452 17.0846 43.3383 15.4753C43.3383 13.4689 44.6266 11.6143 47.0082 11.4938C49.3899 11.3733 49.9078 13.0605 50.0378 14.5005C50.1246 15.4606 49.8913 16.5714 49.3381 17.833L49.9252 17.8065C50.2204 17.7534 50.4929 17.6753 50.7429 17.5721L50.8782 18.1131C50.6352 16.2683 50.828 14.2146 51.0924 12.3032C52.7021 5.47424 56.1536 1.6963 61.447 0.969358C63.5978 0.746824 64.6614 1.90114 64.6378 4.43229C64.6378 6.09872 63.5901 7.56106 62.6565 7.56106C61.7229 7.56106 61.4793 6.09369 59.4692 6.14071C56.4291 6.60878 55.5731 11.9595 55.2698 13.9188C54.9665 15.8781 55.702 19.217 58.7652 19.6152C61.8283 20.0135 64.9135 14.8334 65.9234 13.7501C66.9334 12.6668 68.2299 5.56387 71.1338 5.74094C72.2282 6.44691 70.2481 13.1118 69.857 14.8334C69.466 16.5549 69.6006 19.7701 69.6006 21.4698C69.6006 23.1696 67.4513 23.9537 66.2209 23.9537C65.2809 23.9486 64.845 22.9389 64.9135 20.9246C62.5126 23.1757 59.9749 24.189 57.3004 23.9645C53.9402 23.7192 52.2129 22.2327 51.3997 20.1976ZM113.787 23.2271C112.186 23.2271 110.888 21.8933 110.888 20.248C110.888 18.6027 112.186 17.2688 113.787 17.2688C115.388 17.2688 116.686 18.6027 116.686 20.248C116.686 21.8933 115.388 23.2271 113.787 23.2271ZM64.6909 5.69872C65.4835 3.04461 68.2453 1.46815 72.9763 0.969358C76.1897 1.0853 78.4185 1.87353 79.6625 3.33404C80.751 1.76624 82.2088 1.02952 84.0358 1.12386C86.2341 0.980237 87.3706 2.28574 87.4452 5.04036C88.9427 2.31311 90.8323 0.956103 93.1141 0.969358C96.0474 1.16507 97.401 3.15829 97.1748 6.94902C98.6476 5.04024 100.156 4.15696 101.701 4.29919C105.373 4.44632 105.909 7.57144 104.629 13.9846C104.433 14.9651 104.09 16.5746 103.599 18.8131C103.58 19.9384 103.923 20.3832 104.629 20.1475C105.687 19.7939 108.295 16.511 108.668 16.511C109.041 16.511 109.54 17.1856 109.366 17.9673C109.192 18.7489 107.336 23.4846 102.397 23.7466C97.1079 23.0743 100.691 16.6773 101.336 12.9241C101.701 11.8544 102.284 8.39381 100.999 8.39381C99.4353 8.31989 97.1028 11.7788 96.2045 14.657C94.498 19.7608 95.5153 20.6279 95.3447 21.4601C95.0212 22.984 94.1195 23.8345 92.6396 24.0118C90.4198 24.2778 91.0533 21.3822 91.2137 20.1475C91.6849 16.8743 95.8111 6.08656 92.6396 5.04036C87.9367 4.66586 85.9697 16.9104 85.9697 17.4389C85.7687 18.3982 88.4895 22.8634 83.5827 24.0118C82.2567 24.0006 81.6281 23.3176 81.6968 21.9627C79.8016 23.255 78.3353 23.8496 77.2979 23.7466C74.2177 23.5095 74.3718 19.5889 74.0157 17.4389C73.6596 15.2888 73.5209 14.2159 73.5209 14.2159C72.1984 13.9762 71.5584 13.4614 71.6007 12.6716C71.6965 11.215 72.7965 10.8339 74.9007 11.5283C76.3361 10.0905 76.9512 8.64972 76.7461 7.20597C76.2612 3.14082 72.1725 4.01837 70.7272 4.01837C69.2819 4.01837 65.8027 5.98024 65.8027 5.98024C65.4689 6.10554 65.2016 6.12204 65.0006 6.02972C64.7996 5.9374 64.6964 5.82707 64.6909 5.69872ZM80.9273 5.14738C81.2226 6.18683 81.2226 7.40925 80.9273 8.81463C80.7384 10.7145 79.2758 12.3911 76.5395 13.8443C76.9226 14.7877 77.1732 15.4772 77.2913 15.913C77.9464 18.3305 77.9444 19.6646 78.9914 20.1948C79.4722 20.4165 80.44 19.7242 81.8946 18.1179C82.5332 13.9742 82.9793 11.3065 83.233 10.1149C83.6136 8.32738 84.3351 4.34562 82.5454 4.22433C82.013 4.22433 81.4736 4.53201 80.9273 5.14738ZM10.9577 10.8244C10.3766 10.8041 9.44316 11.1907 8.15741 11.9842C6.79802 12.739 5.51413 14.6264 5.28168 15.945C5.04922 17.2637 4.59865 19.9051 6.81822 20.0725C8.25339 20.2005 9.46301 19.0553 10.4471 16.6371C10.5598 15.8911 10.5916 15.1136 10.5426 14.3045C10.5426 13.6362 10.6809 12.4762 10.9577 10.8244ZM47.4831 16.9808C47.8624 16.075 48.052 15.4306 48.052 15.0476C48.052 14.4731 47.8766 13.9188 47.4831 13.9188C47.0897 13.9188 46.669 14.3235 46.7538 15.2C46.8289 15.9787 47.072 16.5723 47.4831 16.9808Z" fill="#0D0C0C"/>
</mask>
<g mask="url(#mask0_551_5119)">
<path d="M50.9702 13.0955C49.8118 14.2859 50.9702 18.8494 51.5495 20.8336L44.0198 26.1907C34.3663 25.7939 13.3217 25.2384 6.37124 26.1907C-2.31688 27.3812 -1.73767 9.52408 -4.70877e-05 6.54789C1.73758 3.5717 22.0099 3.57166 34.1732 2.97643C46.3366 2.38119 50.391 12.5002 50.9702 13.0955Z" fill="#C7C8CA"/>
</g>
</g>
<defs>
<clipPath id="clip0_551_5119">
<rect width="117" height="25" fill="white"/>
</clipPath>
</defs>
</svg>
