<svg width="163" height="25" viewBox="0 0 163 25" fill="none" xmlns="http://www.w3.org/2000/svg">
<g clip-path="url(#clip0_551_5125)">
<path fill-rule="evenodd" clip-rule="evenodd" d="M156.232 18.8581V13.4865H153.796V13.686C153.753 15.866 153.397 17.4333 152.955 18.8581H156.232ZM160.564 18.8581H162.174L162.074 24.8279H158.085V22.3345H151.559L151.488 24.8279H147.47V18.8581H148.866C149.564 16.8491 149.906 14.8972 149.906 10.6511V10.0529H160.564V18.8581ZM79.6785 9.29766C76.7577 9.29766 75.3756 8.05806 75.0335 5.90657L78.3248 5.43652C78.4817 6.24865 78.8805 6.76152 79.6785 6.76152C80.4765 6.76152 80.8753 6.24865 81.032 5.43652L84.3233 5.90657C83.9815 8.05806 82.585 9.29766 79.6785 9.29766ZM64.8749 18.9435C66.4422 18.9435 67.4395 17.7168 67.4395 16.2079C67.4395 14.7274 66.3425 13.4722 64.8321 13.4722C63.265 13.4722 62.2677 14.6992 62.2677 16.2079C62.2677 17.6886 63.3504 18.9435 64.8749 18.9435ZM64.8749 9.78212C68.793 9.78212 71.6283 12.6744 71.6283 16.2079C71.6283 19.6987 68.7786 22.6336 64.8321 22.6336C60.8996 22.6336 58.0642 19.7415 58.0642 16.2079C58.0642 12.7173 60.9284 9.78212 64.8749 9.78212ZM139.163 19.0006C140.545 19.0006 141.657 17.8463 141.657 16.1795C141.657 14.5553 140.545 13.3869 139.163 13.3869C137.753 13.3869 136.641 14.5265 136.641 16.2221C136.641 17.8463 137.753 19.0006 139.163 19.0006ZM141.571 10.0528H145.874V22.3345H141.571V20.6961C140.731 21.7218 139.69 22.6053 137.853 22.6053C134.917 22.6053 132.396 20.183 132.396 16.208C132.396 12.2186 134.917 9.78199 137.824 9.78199C139.69 9.78199 140.773 10.6228 141.571 11.5488V10.0528ZM77.6125 16.2364L81.716 10.0528H85.6912V22.3345H81.5162V18.3308C81.5162 17.5614 81.5162 16.8491 81.5306 16.1508L77.4274 22.3345H73.4521V10.0528H77.6269V13.9996C77.6269 14.6122 77.6269 15.4956 77.6125 16.2364ZM120.043 12.4179L120.071 10.0528H130.643V22.3345H126.326V13.4865H123.847V13.8714C123.719 21.2944 122.066 22.4912 119.459 22.4912C119.045 22.4912 118.233 22.4199 117.692 22.3345H112.577L109.186 17.0912V22.3345H104.883V10.0528H109.186V14.783L112.477 10.0528H117.449L113.061 15.638L117.563 22.1919L117.763 18.4162C118.233 18.4734 118.347 18.4734 118.461 18.4734C119.231 18.4734 120.028 17.9177 120.043 12.4179ZM96.9185 18.4876C98.4289 18.4876 99.469 17.8322 100.338 16.5785L103.658 19.0005C102.076 21.1376 100.081 22.6337 96.6049 22.6337C91.9885 22.6337 88.4554 19.2 88.4554 14.3557C88.4554 9.8391 91.9603 6.12053 96.8187 6.12053C99.8249 6.12053 102.019 7.43118 103.572 9.65395L100.309 12.0332C99.4403 10.8223 98.4002 10.2522 97.018 10.2522C94.696 10.2522 93.0858 12.076 93.0858 14.3557C93.0858 16.8634 94.767 18.4876 96.9185 18.4876ZM51.3108 6.39118H54.1462L57.1952 22.3345H52.8782L51.4819 14.555L47.5923 22.8617H47.0935L43.1895 14.6266L41.7935 22.3345H37.5049L40.5539 6.39118H43.3747C43.3747 6.39118 45.8254 11.6627 46.3101 12.6743C46.7945 13.686 47.3499 14.9825 47.3499 14.9825C47.3499 14.9825 48.0623 13.3157 48.4185 12.6033C48.7749 11.8909 51.3108 6.39118 51.3108 6.39118Z" fill="#2855B0"/>
<path fill-rule="evenodd" clip-rule="evenodd" d="M4.33594 23.6329C8.22307 23.6329 11.1619 18.572 13.7966 13.0468C15.0647 10.3681 16.2471 7.56137 17.4295 5.18191C18.728 2.54256 20.0599 0.679688 21.6896 0.679688C23.0711 0.679688 24.3711 1.79528 25.6649 3.5433C28.3473 7.17251 30.6659 13.3185 30.6659 17.3495C30.6659 20.7262 28.9278 23.6329 25.3656 23.6329H4.33594Z" fill="#63CDFF"/>
<path fill-rule="evenodd" clip-rule="evenodd" d="M13.7965 13.0463C11.1264 7.66337 9.91752 3.71387 7.55588 3.71387C6.08831 3.71387 4.43559 5.25273 2.93955 7.77451C1.33682 10.4505 0.0756836 14.2265 0.0756836 18.2896C0.0756836 21.498 1.64598 23.6324 4.33583 23.6324C8.22197 23.6324 11.1618 18.5715 13.7965 13.0463Z" fill="#2855B0"/>
</g>
<defs>
<clipPath id="clip0_551_5125">
<rect width="163" height="25" fill="white"/>
</clipPath>
</defs>
</svg>
