<svg width="154" height="30" viewBox="0 0 154 30" fill="none" xmlns="http://www.w3.org/2000/svg">
<path d="M8.66 24.21C7.04 24.21 5.58 23.86 4.28 23.16C2.98 22.46 1.96 21.49 1.22 20.25C0.5 18.99 0.14 17.57 0.14 15.99C0.14 14.41 0.5 13 1.22 11.76C1.96 10.52 2.98 9.55 4.28 8.85C5.58 8.15 7.04 7.8 8.66 7.8C10.3 7.8 11.77 8.15 13.07 8.85C14.37 9.55 15.38 10.52 16.1 11.76C16.84 13 17.21 14.41 17.21 15.99C17.21 17.57 16.84 18.99 16.1 20.25C15.38 21.49 14.37 22.46 13.07 23.16C11.77 23.86 10.3 24.21 8.66 24.21ZM8.66 21C10.04 21 11.18 20.54 12.08 19.62C12.98 18.7 13.43 17.49 13.43 15.99C13.43 14.49 12.98 13.28 12.08 12.36C11.18 11.44 10.04 10.98 8.66 10.98C7.28 10.98 6.14 11.44 5.24 12.36C4.36 13.28 3.92 14.49 3.92 15.99C3.92 17.49 4.36 18.7 5.24 19.62C6.14 20.54 7.28 21 8.66 21ZM29.8859 7.8C31.9059 7.8 33.5259 8.39 34.7459 9.57C35.9659 10.75 36.5759 12.5 36.5759 14.82V24H32.8259V15.3C32.8259 13.9 32.4959 12.85 31.8359 12.15C31.1759 11.43 30.2359 11.07 29.0159 11.07C27.6359 11.07 26.5459 11.49 25.7459 12.33C24.9459 13.15 24.5459 14.34 24.5459 15.9V24H20.7959V7.98H24.3659V10.05C24.9859 9.31 25.7659 8.75 26.7059 8.37C27.6459 7.99 28.7059 7.8 29.8859 7.8ZM41.333 1.74H45.083V24H41.333V1.74ZM50.0049 7.98H53.7549V24H50.0049V7.98ZM51.8949 5.34C51.2149 5.34 50.6449 5.13 50.1849 4.71C49.7249 4.27 49.4949 3.73 49.4949 3.09C49.4949 2.45 49.7249 1.92 50.1849 1.5C50.6449 1.06 51.2149 0.84 51.8949 0.84C52.5749 0.84 53.1449 1.05 53.6049 1.47C54.0649 1.87 54.2949 2.38 54.2949 3C54.2949 3.66 54.0649 4.22 53.6049 4.68C53.1649 5.12 52.5949 5.34 51.8949 5.34ZM67.7668 7.8C69.7868 7.8 71.4068 8.39 72.6268 9.57C73.8468 10.75 74.4568 12.5 74.4568 14.82V24H70.7068V15.3C70.7068 13.9 70.3768 12.85 69.7168 12.15C69.0568 11.43 68.1168 11.07 66.8968 11.07C65.5168 11.07 64.4268 11.49 63.6268 12.33C62.8268 13.15 62.4268 14.34 62.4268 15.9V24H58.6768V7.98H62.2468V10.05C62.8668 9.31 63.6468 8.75 64.5868 8.37C65.5268 7.99 66.5868 7.8 67.7668 7.8ZM94.4204 16.08C94.4204 16.34 94.4004 16.71 94.3604 17.19H81.7904C82.0104 18.37 82.5804 19.31 83.5004 20.01C84.4404 20.69 85.6004 21.03 86.9804 21.03C88.7404 21.03 90.1904 20.45 91.3304 19.29L93.3404 21.6C92.6204 22.46 91.7104 23.11 90.6104 23.55C89.5104 23.99 88.2704 24.21 86.8904 24.21C85.1304 24.21 83.5804 23.86 82.2404 23.16C80.9004 22.46 79.8604 21.49 79.1204 20.25C78.4004 18.99 78.0404 17.57 78.0404 15.99C78.0404 14.43 78.3904 13.03 79.0904 11.79C79.8104 10.53 80.8004 9.55 82.0604 8.85C83.3204 8.15 84.7404 7.8 86.3204 7.8C87.8804 7.8 89.2704 8.15 90.4904 8.85C91.7304 9.53 92.6904 10.5 93.3704 11.76C94.0704 13 94.4204 14.44 94.4204 16.08ZM86.3204 10.8C85.1204 10.8 84.1004 11.16 83.2604 11.88C82.4404 12.58 81.9404 13.52 81.7604 14.7H90.8504C90.6904 13.54 90.2004 12.6 89.3804 11.88C88.5604 11.16 87.5404 10.8 86.3204 10.8Z" fill="#01C817"/>
<path d="M106.903 7.8C108.463 7.8 109.853 8.14 111.073 8.82C112.313 9.5 113.283 10.46 113.983 11.7C114.683 12.94 115.033 14.37 115.033 15.99C115.033 17.61 114.683 19.05 113.983 20.31C113.283 21.55 112.313 22.51 111.073 23.19C109.853 23.87 108.463 24.21 106.903 24.21C104.743 24.21 103.033 23.49 101.773 22.05V29.82H98.0225V7.98H101.593V10.08C102.213 9.32 102.973 8.75 103.873 8.37C104.793 7.99 105.803 7.8 106.903 7.8ZM106.483 21C107.863 21 108.993 20.54 109.873 19.62C110.773 18.7 111.223 17.49 111.223 15.99C111.223 14.49 110.773 13.28 109.873 12.36C108.993 11.44 107.863 10.98 106.483 10.98C105.583 10.98 104.773 11.19 104.053 11.61C103.333 12.01 102.763 12.59 102.343 13.35C101.923 14.11 101.713 14.99 101.713 15.99C101.713 16.99 101.923 17.87 102.343 18.63C102.763 19.39 103.333 19.98 104.053 20.4C104.773 20.8 105.583 21 106.483 21ZM127.469 7.8C129.029 7.8 130.419 8.14 131.639 8.82C132.879 9.5 133.849 10.46 134.549 11.7C135.249 12.94 135.599 14.37 135.599 15.99C135.599 17.61 135.249 19.05 134.549 20.31C133.849 21.55 132.879 22.51 131.639 23.19C130.419 23.87 129.029 24.21 127.469 24.21C126.369 24.21 125.359 24.02 124.439 23.64C123.539 23.26 122.779 22.69 122.159 21.93V24H118.589V1.74H122.339V9.93C122.979 9.23 123.729 8.7 124.589 8.34C125.469 7.98 126.429 7.8 127.469 7.8ZM127.049 21C128.429 21 129.559 20.54 130.439 19.62C131.339 18.7 131.789 17.49 131.789 15.99C131.789 14.49 131.339 13.28 130.439 12.36C129.559 11.44 128.429 10.98 127.049 10.98C126.149 10.98 125.339 11.19 124.619 11.61C123.899 12.01 123.329 12.59 122.909 13.35C122.489 14.11 122.279 14.99 122.279 15.99C122.279 16.99 122.489 17.87 122.909 18.63C123.329 19.39 123.899 19.98 124.619 20.4C125.339 20.8 126.149 21 127.049 21ZM148.828 24L144.718 18.45L140.578 24H136.438L142.678 15.87L136.708 7.98H140.878L144.808 13.23L148.738 7.98H152.788L146.788 15.81L153.058 24H148.828Z" fill="white"/>
</svg>
